<svg width="31" height="31" viewBox="0 0 31 31" fill="none" xmlns="http://www.w3.org/2000/svg">
<path d="M18.0703 1.79572H12.4453C6.96094 2.92072 2.60156 7.23321 1.47656 12.7645V18.3895C2.60156 23.9207 6.96094 28.2332 12.4453 29.3582H18.0703C23.6016 28.2332 27.9141 23.8738 29.0391 18.3895V12.7645C27.9141 7.23321 23.5547 2.92072 18.0703 1.79572Z" fill="white"/>
<path d="M28.9355 18.8582C29.1919 17.7833 29.3211 16.682 29.3203 15.577C29.3203 14.4473 29.1872 13.3485 28.9355 12.2957H18.5391V1.89931C17.4642 1.64289 16.3629 1.51373 15.2578 1.51447C14.1281 1.51447 13.0294 1.64759 11.9766 1.89931V12.2957H1.58016C1.32374 13.3706 1.19457 14.4719 1.19532 15.577C1.19532 16.7067 1.32844 17.8054 1.58016 18.8582H11.9766V29.2546C13.0515 29.511 14.1528 29.6402 15.2578 29.6395C16.3875 29.6395 17.4863 29.5063 18.5391 29.2546V18.8582H28.9355Z" fill="#CE1124"/>
</svg>
