<svg width="31" height="31" viewBox="0 0 31 31" fill="none" xmlns="http://www.w3.org/2000/svg">
<path d="M1.14844 15.577C1.14844 21.7176 5.08594 26.9207 10.5234 28.8426V2.31134C5.08594 4.23322 1.14844 9.43634 1.14844 15.577Z" fill="#428BC1"/>
<path d="M29.2734 15.577C29.2734 9.43634 25.3828 4.23322 19.8984 2.31134V28.8426C25.3828 26.9207 29.2734 21.7176 29.2734 15.577Z" fill="#ED4C5C"/>
<path d="M10.5234 28.8426C11.9766 29.3582 13.5703 29.6395 15.2109 29.6395C16.8516 29.6395 18.4453 29.3582 19.8984 28.8426V2.31134C18.4453 1.79572 16.8984 1.51447 15.2109 1.51447C13.5234 1.51447 11.9766 1.79572 10.5234 2.31134V28.8426Z" fill="white"/>
</svg>
