<svg width="31" height="31" viewBox="0 0 31 31" fill="none" xmlns="http://www.w3.org/2000/svg">
<path d="M15.2578 1.51447C7.47656 1.51447 1.19531 7.79572 1.19531 15.577H29.3203C29.3203 7.79572 23.0391 1.51447 15.2578 1.51447Z" fill="#42ADE2"/>
<path d="M27.4453 22.6082H3.07031C5.50781 26.827 10.0547 29.6395 15.2578 29.6395C20.4609 29.6395 25.0078 26.827 27.4453 22.6082Z" fill="#699635"/>
<path d="M27.4453 22.6082C28.6641 20.5457 29.3203 18.1551 29.3203 15.577H1.19531C1.19531 18.1551 1.89844 20.5457 3.07031 22.6082H27.4453ZM21.9141 9.71759L25.9922 9.48322L21.9141 9.24884L25.8047 7.93634L21.8203 8.78009L25.1953 6.53009L21.5859 8.35822L24.2578 5.31134L21.2109 8.03009L23.0391 4.37384L20.8359 7.79572L21.6328 3.81134L20.3672 7.65509L20.1328 3.57697L19.8984 7.65509L18.5859 3.81134L19.4297 7.79572L17.1797 4.37384L19.0078 8.03009L15.9609 5.31134L18.6797 8.35822L15.0234 6.53009L18.4453 8.78009L14.4609 7.93634L18.3047 9.24884L14.2734 9.48322L18.3047 9.71759L14.4609 10.9832L18.4453 10.1395L15.0234 12.3895L18.6797 10.5613L15.9609 13.6082L19.0078 10.8895L17.1797 14.5457L19.4297 11.1238L18.5859 15.1082L19.8984 11.2645L20.1328 15.3426L20.3672 11.2645L21.6328 15.1082L20.8359 11.1238L23.0391 14.5457L21.2109 10.8895L24.2578 13.6082L21.5859 10.5613L25.1953 12.3895L21.8203 10.1395L25.8047 10.9832L21.9141 9.71759Z" fill="#FFE62E"/>
<path d="M20.1328 11.2176C21.0907 11.2176 21.8672 10.4411 21.8672 9.48322C21.8672 8.52535 21.0907 7.74884 20.1328 7.74884C19.1749 7.74884 18.3984 8.52535 18.3984 9.48322C18.3984 10.4411 19.1749 11.2176 20.1328 11.2176Z" fill="#FFE62E"/>
<path d="M20.1328 11.3582C19.1016 11.3582 18.2109 10.5145 18.2109 9.43634C18.2109 8.40509 19.0547 7.51447 20.1328 7.51447C21.2109 7.51447 22.0547 8.35822 22.0547 9.43634C22.0547 10.5145 21.1641 11.3582 20.1328 11.3582ZM20.1328 7.88947C19.2891 7.88947 18.5859 8.59259 18.5859 9.43634C18.5859 10.2801 19.2891 10.9832 20.1328 10.9832C20.9766 10.9832 21.6797 10.2801 21.6797 9.43634C21.6797 8.59259 20.9766 7.88947 20.1328 7.88947Z" fill="#42ADE2"/>
</svg>
